<svg width="24" height="24" viewBox="0 0 24 24" fill="none" xmlns="http://www.w3.org/2000/svg">
<rect width="24" height="24" rx="6" fill="white"/>
<mask id="mask0_2901_38347" style="mask-type:alpha" maskUnits="userSpaceOnUse" x="10" y="6" width="4" height="12">
<path fill-rule="evenodd" clip-rule="evenodd" d="M11.6888 8.87946C11.3036 8.87946 10.9735 8.73996 10.6984 8.46094C10.4233 8.18192 10.2857 7.84152 10.2857 7.43973C10.2857 7.03794 10.4233 6.69755 10.6984 6.41853C10.9735 6.13951 11.3036 6 11.6888 6C12.074 6 12.4041 6.13951 12.6792 6.41853C12.9543 6.69755 13.0919 7.03794 13.0919 7.43973C13.0919 7.84152 12.9543 8.18192 12.6792 8.46094C12.4041 8.73996 12.074 8.87946 11.6888 8.87946ZM11.6888 10.2857C12.074 10.2857 12.4041 10.4252 12.6792 10.7042C12.9543 10.9833 13.0919 11.3237 13.0919 11.7254C13.0919 12.1272 12.9543 12.4676 12.6792 12.7467C12.4041 13.0257 12.074 13.1652 11.6888 13.1652C11.3036 13.1652 10.9735 13.0257 10.6984 12.7467C10.4233 12.4676 10.2857 12.1272 10.2857 11.7254C10.2857 11.3237 10.4233 10.9833 10.6984 10.7042C10.9735 10.4252 11.3036 10.2857 11.6888 10.2857ZM11.6888 14.5714C12.074 14.5714 12.4041 14.7109 12.6792 14.99C12.9543 15.269 13.0919 15.6094 13.0919 16.0112C13.0919 16.4129 12.9543 16.7533 12.6792 17.0324C12.4041 17.3114 12.074 17.4509 11.6888 17.4509C11.3036 17.4509 10.9735 17.3114 10.6984 17.0324C10.4233 16.7533 10.2857 16.4129 10.2857 16.0112C10.2857 15.6094 10.4233 15.269 10.6984 14.99C10.9735 14.7109 11.3036 14.5714 11.6888 14.5714Z" fill="white"/>
</mask>
<g mask="url(#mask0_2901_38347)">
<path fill-rule="evenodd" clip-rule="evenodd" d="M-25.6333 -27.2144H50.4305V49.9285H-25.6333V-27.2144Z" fill="#00A0EC"/>
</g>
</svg>
