<svg width="20" height="20" viewBox="0 0 20 20" fill="none" xmlns="http://www.w3.org/2000/svg">
<path fill-rule="evenodd" clip-rule="evenodd" d="M12.8063 1.05901C12.2332 1.20459 11.6583 1.58161 11.294 2.05076C11.1347 2.25588 10.835 2.81839 10.835 2.91215C10.835 2.94545 9.62251 2.95591 5.74037 2.95621L0.645762 2.95658L0.460166 3.04374C0.241906 3.14626 0.175128 3.21449 0.0732732 3.43906C-0.062286 3.7379 0.00148475 4.06693 0.241423 4.30661C0.484516 4.54944 0.0903483 4.5324 5.71702 4.54331L10.8254 4.55323L10.89 4.72891C11.2045 5.58347 12.0166 6.27589 12.9214 6.46082C14.1908 6.72024 15.5167 6.00195 16.0031 4.79127L16.0918 4.57052L17.2403 4.5517C18.482 4.53136 18.5311 4.52368 18.7524 4.31577C18.8898 4.18664 18.9994 3.93783 19 3.7539C19.0005 3.59002 18.8658 3.2695 18.7552 3.17132C18.7162 3.13672 18.6095 3.07444 18.518 3.03294C18.3626 2.96245 18.2774 2.9574 17.228 2.95666L16.1043 2.95584L16.0636 2.85376C15.9362 2.53461 15.7406 2.19011 15.5682 1.98105C15.2394 1.58247 14.7239 1.24127 14.2071 1.08013C13.896 0.983142 13.1492 0.971895 12.8063 1.05901ZM13.9361 2.67604C14.4359 2.89793 14.7121 3.41953 14.6142 3.95687C14.5662 4.22053 14.4774 4.39005 14.288 4.57939C14.0379 4.82954 13.8442 4.90471 13.4519 4.90396C13.1748 4.90344 13.0893 4.88849 12.9508 4.81651C12.7233 4.69825 12.5184 4.4961 12.4008 4.27357C12.3159 4.1131 12.3025 4.04276 12.3019 3.7539C12.3011 3.36166 12.3762 3.16794 12.6261 2.91805C12.8151 2.72912 12.9474 2.65707 13.2106 2.60005C13.4655 2.54482 13.6945 2.5688 13.9361 2.67604ZM5.19286 7.33412C4.28459 7.46333 3.48812 8.0356 3.09878 8.83867C3.00958 9.02271 2.92696 9.20251 2.91519 9.23826C2.89544 9.29824 2.8061 9.30329 1.75121 9.30403C0.468889 9.30496 0.422602 9.31298 0.19276 9.57478C-0.0642533 9.86746 -0.0642533 10.298 0.19276 10.5907C0.422602 10.8525 0.468889 10.8605 1.75121 10.8614C2.8061 10.8621 2.89544 10.8672 2.91519 10.9272C2.92696 10.9629 3.00958 11.1427 3.09878 11.3268C3.44065 12.032 4.10263 12.5651 4.89806 12.7758C5.18703 12.8524 5.78591 12.8618 6.10228 12.7948C6.97551 12.6097 7.72372 11.9745 8.09083 11.1065L8.1863 10.8808L13.3246 10.8622C19.0499 10.8415 18.5628 10.866 18.8081 10.5867C19.0601 10.2997 19.0601 9.86576 18.8081 9.57871C18.5628 9.29943 19.0499 9.32389 13.3246 9.30322L8.1863 9.28466L8.09083 9.05893C7.79517 8.35998 7.2849 7.83556 6.60795 7.53512C6.2146 7.36051 5.61041 7.27469 5.19286 7.33412ZM5.84801 8.94669C6.07451 9.007 6.34062 9.18143 6.4751 9.35771C6.7908 9.77162 6.78987 10.395 6.47295 10.8105C6.33695 10.9888 6.0303 11.1797 5.79196 11.2343C4.83299 11.4541 4.03975 10.424 4.49138 9.54538C4.75118 9.04 5.29583 8.79966 5.84801 8.94669ZM12.8951 13.7074C12.0105 13.8955 11.1999 14.5945 10.89 15.4365L10.8254 15.6122L5.71702 15.6221C0.0903483 15.633 0.484516 15.616 0.241423 15.8588C0.00148475 16.0985 -0.062286 16.4275 0.0732732 16.7264C0.175128 16.951 0.241906 17.0192 0.460166 17.1217L0.645762 17.2089L5.74037 17.2092C9.62251 17.2095 10.835 17.22 10.835 17.2533C10.835 17.347 11.1347 17.9096 11.294 18.1147C11.6733 18.6032 12.2932 18.9947 12.8913 19.1236C13.244 19.1997 13.8976 19.1803 14.2071 19.0847C14.7214 18.9259 15.239 18.5835 15.5682 18.1844C15.7406 17.9753 15.9362 17.6308 16.0636 17.3117L16.1043 17.2096L17.228 17.2092C18.3294 17.2089 18.3553 17.2071 18.5372 17.1217C18.7555 17.0192 18.8222 16.951 18.9241 16.7264C19.1026 16.3328 18.9248 15.8792 18.5186 15.6923C18.4113 15.6429 18.1891 15.6293 17.2403 15.6137L16.0918 15.5949L16.0031 15.3742C15.5144 14.1577 14.1695 13.4365 12.8951 13.7074ZM13.9602 15.3473C14.1654 15.4476 14.4139 15.6853 14.5094 15.8726C14.6693 16.186 14.6706 16.6345 14.5124 16.9445C14.2165 17.5246 13.4893 17.7631 12.9129 17.4691C12.7261 17.3737 12.4882 17.1254 12.387 16.9199C12.263 16.668 12.2641 16.1512 12.3893 15.9104C12.5449 15.611 12.8184 15.3784 13.1364 15.2752C13.3178 15.2163 13.7741 15.2562 13.9602 15.3473Z" fill="#AFB6C6"/>
</svg>
