<svg width="8" height="12" viewBox="0 0 8 12" fill="none" xmlns="http://www.w3.org/2000/svg">
<path d="M3.21911 11.0239C3.61943 11.5243 4.38052 11.5243 4.78085 11.0239L6.70021 8.62469C7.22402 7.96993 6.75784 7 5.91934 7H2.08062C1.24211 7 0.77594 7.96993 1.29975 8.62469L3.21911 11.0239Z" fill="white"/>
<path d="M3.21911 11.0239C3.61943 11.5243 4.38052 11.5243 4.78085 11.0239L6.70021 8.62469C7.22402 7.96993 6.75784 7 5.91934 7H2.08062C1.24211 7 0.77594 7.96993 1.29975 8.62469L3.21911 11.0239Z" fill="#AFB6C6" fill-opacity="0.6"/>
<path d="M4.78089 0.976094C4.38057 0.475685 3.61948 0.475684 3.21915 0.976093L1.29979 3.37531C0.775982 4.03007 1.24216 5 2.08066 5H5.91938C6.75789 5 7.22406 4.03007 6.70025 3.37531L4.78089 0.976094Z" fill="white"/>
<path d="M4.78089 0.976094C4.38057 0.475685 3.61948 0.475684 3.21915 0.976093L1.29979 3.37531C0.775982 4.03007 1.24216 5 2.08066 5H5.91938C6.75789 5 7.22406 4.03007 6.70025 3.37531L4.78089 0.976094Z" fill="#AFB6C6" fill-opacity="0.6"/>
</svg>
