<svg width="14" height="14" viewBox="0 0 14 14" fill="none" xmlns="http://www.w3.org/2000/svg">
<path fill-rule="evenodd" clip-rule="evenodd" d="M4.5492 0.433793C3.92404 0.654505 2.96241 1.20953 2.60681 1.55488C2.34319 1.81091 2.28669 2.147 2.43365 2.58513C2.54579 2.91941 2.55493 3.39487 2.45529 3.70972C2.24098 4.38699 1.67085 4.86975 0.957422 4.978C0.582683 5.03485 0.344269 5.19013 0.201256 5.47046C0.070131 5.72751 -0.0235755 6.58217 0.00522578 7.25877C0.0407454 8.09407 0.119409 8.38576 0.368046 8.60466C0.516727 8.73552 0.642973 8.78436 1.00124 8.84965C1.40113 8.9225 1.6483 9.05535 1.95057 9.35998C2.33734 9.74976 2.48865 10.1175 2.48629 10.6618C2.48515 10.924 2.47349 10.9867 2.37228 11.2752C2.12236 11.9874 2.25421 12.2471 3.1774 12.8606C3.49124 13.0691 4.10918 13.3894 4.45643 13.5235C4.8142 13.6617 5.01931 13.6649 5.27665 13.5363C5.39227 13.4785 5.49652 13.3977 5.56613 13.3118C5.90543 12.893 6.13731 12.7182 6.52846 12.586C7.24873 12.3428 8.02934 12.5758 8.52913 13.1833C8.80847 13.5228 9.15788 13.6434 9.52175 13.5259C9.80906 13.4331 10.4413 13.1031 10.835 12.8404C11.3348 12.507 11.5902 12.2751 11.6751 12.0778C11.7829 11.8272 11.7834 11.6927 11.6779 11.3774C11.56 11.0255 11.5296 10.5943 11.6011 10.2898C11.7595 9.61548 12.2746 9.09755 12.9487 8.93494C13.4313 8.81854 13.4508 8.81045 13.6164 8.65914C13.7324 8.5531 13.7941 8.46781 13.8362 8.35523C14.059 7.7597 14.0532 6.04575 13.8267 5.54746C13.7524 5.38417 13.5957 5.21151 13.4563 5.13942C13.4069 5.11386 13.2757 5.07405 13.1648 5.05091C12.3897 4.88929 11.8481 4.39015 11.6619 3.66591C11.5935 3.40012 11.6159 2.90183 11.7071 2.65815C11.7988 2.41296 11.8007 2.12252 11.7119 1.9279C11.6286 1.74539 11.5536 1.66536 11.2292 1.41318C10.5877 0.914389 9.5871 0.407124 9.17681 0.372743C8.87159 0.347184 8.7454 0.40911 8.36301 0.772106C8.113 1.00944 7.98068 1.11097 7.81438 1.19317C7.294 1.45028 6.72464 1.45008 6.1957 1.19256C6.01535 1.10475 5.89848 1.01566 5.6431 0.771346C5.39537 0.534334 5.28597 0.45018 5.17784 0.413316C4.98359 0.347126 4.77547 0.353903 4.5492 0.433793ZM7.55938 4.72779C8.1673 4.89306 8.63321 5.22588 8.96229 5.73002C9.66158 6.80122 9.35073 8.24859 8.2698 8.95422C7.87207 9.21387 7.51273 9.31681 7.00394 9.31681C6.34379 9.31681 5.81176 9.09951 5.35602 8.6438C4.90031 8.18806 4.68301 7.65603 4.68301 6.99588C4.68301 6.48709 4.78595 6.12775 5.0456 5.73002C5.39703 5.19168 5.94358 4.82506 6.5804 4.70051C6.82915 4.65184 7.33151 4.66583 7.55938 4.72779Z" fill="#00A0EC"/>
</svg>
